<?xml version="1.0" encoding="UTF-8" standalone="no"?>
<!-- Created with Inkscape (http://www.inkscape.org/) -->

<svg
   xmlns:dc="http://purl.org/dc/elements/1.1/"
   xmlns:cc="http://creativecommons.org/ns#"
   xmlns:rdf="http://www.w3.org/1999/02/22-rdf-syntax-ns#"
   xmlns:svg="http://www.w3.org/2000/svg"
   xmlns="http://www.w3.org/2000/svg"
   xmlns:sodipodi="http://sodipodi.sourceforge.net/DTD/sodipodi-0.dtd"
   xmlns:inkscape="http://www.inkscape.org/namespaces/inkscape"
   width="315.09323"
   height="42.19733"
   viewBox="0 0 83.368415 11.164711"
   version="1.1"
   id="svg8"
   sodipodi:docname="text.svg"
   inkscape:export-filename="/home/grey/git/arkMetrica/logo/text.png"
   inkscape:export-xdpi="96"
   inkscape:export-ydpi="96"
   inkscape:version="0.92.4 5da689c313, 2019-01-14">
  <defs
     id="defs2" />
  <sodipodi:namedview
     id="base"
     pagecolor="#ffffff"
     bordercolor="#666666"
     borderopacity="1.0"
     inkscape:pageopacity="0.0"
     inkscape:pageshadow="2"
     inkscape:zoom="1.979899"
     inkscape:cx="172.64774"
     inkscape:cy="-65.615637"
     inkscape:document-units="mm"
     inkscape:current-layer="layer1"
     showgrid="false"
     units="px"
     fit-margin-top="0"
     fit-margin-left="0"
     fit-margin-right="0"
     fit-margin-bottom="0"
     inkscape:window-width="1920"
     inkscape:window-height="1136"
     inkscape:window-x="0"
     inkscape:window-y="27"
     inkscape:window-maximized="1" />
  <metadata
     id="metadata5">
    <rdf:RDF>
      <cc:Work
         rdf:about="">
        <dc:format>image/svg+xml</dc:format>
        <dc:type
           rdf:resource="http://purl.org/dc/dcmitype/StillImage" />
        <dc:title></dc:title>
      </cc:Work>
    </rdf:RDF>
  </metadata>
  <g
     inkscape:label="Layer 1"
     inkscape:groupmode="layer"
     id="layer1"
     transform="translate(-1.5381258,-270.00975)">
    <g
       aria-label="Ark Metrica"
       style="font-style:normal;font-variant:normal;font-weight:900;font-stretch:normal;font-size:7.05555534px;line-height:125%;font-family:'Questa Slab';-inkscape-font-specification:'Questa Slab Heavy';letter-spacing:0px;word-spacing:0px;fill:#000000;fill-opacity:1;stroke:none;stroke-width:0.26458332px;stroke-linecap:butt;stroke-linejoin:miter;stroke-opacity:1"
       id="text4520"
       transform="translate(2.0855747,-3.102725)">
      <g
         id="g888">
        <path
           id="path852"
           style="font-size:15.16944408px;stroke-width:0.26458332px"
           d="m -0.5474489,284.06482 h 3.9440555 v -1.75966 h -0.955675 l 0.3337278,-1.00118 h 3.2159221 l 0.3792361,1.00118 H 5.4293121 v 1.75966 h 4.1867665 v -1.75966 H 8.8272675 L 5.5354982,274.03782 H 3.1994038 l -2.97321105,8.26734 H -0.5474489 Z m 3.8833777,-4.5205 0.9405055,-3.04905 1.0770306,3.04905 z"
           inkscape:connector-curvature="0" />
        <path
           id="path854"
           style="font-size:15.16944408px;stroke-width:0.26458332px"
           d="m 10.2449,284.06482 h 3.974394 v -1.71415 h -0.80398 v -2.07821 c 0.227541,-0.63712 0.591608,-1.22873 1.228725,-1.22873 0.697794,0 0.925336,0.50059 0.925336,0.50059 l 0.955675,-2.24507 c 0,0 -0.333728,-0.53093 -1.395589,-0.53093 -0.955675,0 -1.547283,0.69779 -1.881011,1.50177 v -1.2894 h -3.231092 v 1.71415 h 1.031522 v 3.65583 H 10.2449 Z"
           inkscape:connector-curvature="0" />
        <path
           id="path856"
           style="font-size:15.16944408px;fill:#ff0000;fill-opacity:1"
           d="m 16.742163,284.06482 h 3.898547 v -1.71415 h -0.728134 v -1.0922 h 0.576439 l 1.91135,2.80635 h 2.351264 v -1.71415 h -0.667456 l -1.714147,-2.35126 1.486606,-1.30457 h 0.81915 v -1.71415 h -3.898547 v 1.71415 h 0.894997 l -1.137708,0.92533 h -0.621948 v -6.44701 h -3.322108 v 1.71415 h 0.955675 v 7.46336 h -0.80398 z"
           inkscape:connector-curvature="0" />
        <path
           id="path858"
           style="font-size:15.16944408px;stroke-width:0.26458332px"
           d="m 28.585232,284.06482 h 4.581172 v -1.75966 h -1.016353 v -5.47617 l 2.502958,7.23583 h 1.36525 l 2.518128,-7.28133 v 5.52167 h -1.016353 v 1.75966 h 4.581172 v -1.75966 h -1.0922 v -6.50769 h 1.0922 v -1.75965 h -4.717697 l -1.987197,5.82506 -2.002367,-5.82506 h -4.808713 v 1.75965 h 1.0922 v 6.50769 h -1.0922 z"
           inkscape:connector-curvature="0" />
        <path
           id="path860"
           style="font-size:15.16944408px;stroke-width:0.26458332px"
           d="m 47.582826,281.80457 c -0.106186,0.5461 -0.470253,0.71297 -1.077031,0.71297 -0.986014,0 -1.274233,-0.43992 -1.334911,-1.45627 h 4.490156 v -0.77364 c 0,-2.29059 -1.10737,-3.51931 -3.337278,-3.51931 -2.745669,0 -3.625497,1.86584 -3.625497,3.83787 0,2.44228 1.36525,3.671 3.731683,3.671 1.896181,0 2.836686,-0.78881 3.231092,-2.10855 z m -2.381603,-2.1844 c 0.121356,-0.89499 0.455083,-1.16804 1.031522,-1.16804 0.621947,0 0.940506,0.31855 0.940506,1.15287 v 0.0152 z"
           inkscape:connector-curvature="0" />
        <path
           id="path862"
           style="font-size:15.16944408px;stroke-width:0.26458332px"
           d="m 51.234396,281.75906 c 0,1.25907 0.606778,2.45745 2.487789,2.45745 1.729316,0 2.199569,-0.9405 2.502958,-2.13889 l -1.729317,-0.60678 c -0.03034,0.42475 -0.106186,0.84949 -0.485422,0.84949 -0.303389,0 -0.409575,-0.21237 -0.409575,-0.56127 v -3.06422 h 1.941689 v -1.71415 H 53.600829 V 275.039 H 51.40126 l -0.136525,1.94169 h -1.061861 v 1.71415 h 1.031522 z"
           inkscape:connector-curvature="0" />
        <path
           id="path864"
           style="font-size:15.16944408px;stroke-width:0.26458332px"
           d="m 56.790204,284.06482 h 3.974395 v -1.71415 h -0.803981 v -2.07821 c 0.227542,-0.63712 0.591608,-1.22873 1.228725,-1.22873 0.697794,0 0.925336,0.50059 0.925336,0.50059 l 0.955675,-2.24507 c 0,0 -0.333728,-0.53093 -1.395589,-0.53093 -0.955675,0 -1.547283,0.69779 -1.881011,1.50177 v -1.2894 h -3.231091 v 1.71415 h 1.031522 v 3.65583 h -0.803981 z"
           inkscape:connector-curvature="0" />
        <path
           id="path875"
           d="m 63.54535,284.06482 h 3.974395 v -1.71415 h -0.803981 v -5.36998 h -3.397955 v 1.71415 h 1.031522 v 3.65583 H 63.54535 Z"
           style="font-size:15.16944408px;stroke-width:0.26458332px"
           inkscape:connector-curvature="0" />
        <path
           id="path866"
           d="m 63.954925,274.50807 c 0,0.77364 0.637117,1.41076 1.410759,1.41076 0.788811,0 1.410758,-0.63712 1.410758,-1.41076 0,-0.77364 -0.621947,-1.39559 -1.410758,-1.39559 -0.773642,0 -1.410759,0.62195 -1.410759,1.39559 z"
           style="font-size:15.16944408px;fill:#ff0000;fill-opacity:1;stroke-width:0.26458332px"
           inkscape:connector-curvature="0" />
        <path
           id="path868"
           style="font-size:15.16944408px;stroke-width:0.26458332px"
           d="m 72.728311,281.54669 c 0,0.60678 -0.348897,0.97085 -0.925336,0.97085 -0.81915,0 -1.122539,-0.62195 -1.122539,-1.88102 0,-1.01635 0.106186,-2.10855 1.122539,-2.10855 0.379236,0 0.773642,0.22754 0.773642,0.92534 0,0.10618 0,0.21237 -0.01517,0.31856 l 2.320925,-0.47026 c 0.01517,-0.091 0.01517,-0.18203 0.01517,-0.27305 0,-1.44109 -1.243895,-2.26024 -3.064228,-2.26024 -2.063044,0 -3.610328,0.92533 -3.610328,3.73168 0,2.39677 1.0922,3.77719 3.54965,3.77719 1.956858,0 2.74567,-0.9405 3.155245,-2.29058 z"
           inkscape:connector-curvature="0" />
        <path
           id="path870"
           style="font-size:15.16944408px;stroke-width:0.26458332px"
           d="m 78.118441,279.43814 c -0.01517,-0.0759 -0.01517,-0.1517 -0.01517,-0.21237 0,-0.53093 0.257881,-0.72814 0.743303,-0.72814 0.576439,0 0.773642,0.28822 0.773642,1.0922 v 0.21238 c -2.47262,0.0152 -4.09575,0.75847 -4.09575,2.39677 0,1.35008 1.107369,2.07821 2.396772,2.07821 1.10737,0 1.65347,-0.5461 2.017536,-1.06186 0.166864,0.45508 0.652286,0.98601 1.774825,0.98601 0.197203,0 0.424745,-0.0152 0.682625,-0.0607 l 0.424745,-1.86585 c -0.136525,0.0303 -0.242712,0.0455 -0.333728,0.0455 -0.485422,0 -0.500592,-0.37923 -0.500592,-1.03152 v -1.66864 c 0,-1.95686 -0.80398,-2.85185 -2.973211,-2.85185 -2.16923,0 -3.26143,0.87982 -3.26143,2.00236 0,0.0758 0,0.1517 0.01517,0.22755 z m 1.501775,2.26025 c -0.06068,0.65228 -0.606778,0.89499 -1.061861,0.89499 -0.394406,0 -0.652286,-0.18203 -0.652286,-0.57644 0,-0.69779 0.788811,-0.86465 1.714147,-0.87982 z"
           inkscape:connector-curvature="0" />
      </g>
    </g>
  </g>
</svg>
